<svg width="99" height="29" fill="none" xmlns="http://www.w3.org/2000/svg"><path d="M95.478 29H3.468C1.556 29 0 27.457 0 25.569V3.427C0 1.537 1.556 0 3.469 0h92.009C97.388 0 99 1.537 99 3.426v22.142C99 27.458 97.389 29 95.478 29z" fill="#A6A6A6"/><path d="M98.29 25.57c0 1.533-1.257 2.776-2.812 2.776H3.468c-1.554 0-2.815-1.243-2.815-2.777V3.425c0-1.533 1.261-2.78 2.816-2.78h92.009c1.555 0 2.811 1.247 2.811 2.78l.002 22.144z" fill="#000"/><path d="M22.094 14.344c-.022-2.337 1.936-3.473 2.024-3.527-1.107-1.597-2.825-1.815-3.428-1.833-1.443-.15-2.842.854-3.577.854-.75 0-1.88-.84-3.1-.815-1.57.024-3.038.922-3.843 2.317-1.662 2.844-.423 7.024 1.17 9.323.796 1.126 1.726 2.383 2.945 2.339 1.19-.049 1.635-.752 3.074-.752 1.425 0 1.843.752 3.085.724 1.278-.02 2.082-1.131 2.853-2.267.92-1.29 1.289-2.56 1.303-2.626-.029-.01-2.483-.935-2.508-3.737h.002zm-2.347-6.872c.641-.792 1.08-1.87.958-2.965-.928.041-2.088.635-2.756 1.41-.591.684-1.119 1.803-.983 2.856 1.042.077 2.112-.52 2.781-1.3zM39.34 22.841h-1.665l-.913-2.835h-3.17l-.87 2.835h-1.62l3.141-9.649h1.94l3.157 9.649zm-2.853-4.024l-.825-2.519c-.088-.257-.25-.862-.491-1.817h-.03c-.096.41-.251 1.016-.464 1.817l-.81 2.52h2.62v-.001zm10.932.46c0 1.183-.323 2.118-.97 2.805-.58.61-1.3.916-2.159.916-.926 0-1.592-.329-1.998-.986h-.03v3.664H40.7v-7.502c0-.744-.02-1.508-.059-2.291h1.376l.088 1.103h.03c.52-.831 1.312-1.247 2.373-1.247.83 0 1.523.325 2.078.974.556.65.833 1.504.833 2.563zm-1.593.056c0-.677-.154-1.235-.464-1.675a1.605 1.605 0 00-1.36-.687c-.386 0-.737.128-1.05.38-.314.253-.52.585-.615.995a2.009 2.009 0 00-.074.472v1.16c0 .506.158.933.472 1.281.314.35.722.522 1.223.522.59 0 1.047-.224 1.375-.672.329-.45.493-1.04.493-1.776zm9.687-.056c0 1.183-.324 2.118-.971 2.805-.58.61-1.298.916-2.156.916-.928 0-1.594-.329-1.999-.986h-.029v3.664h-1.563v-7.502c0-.744-.02-1.508-.06-2.291h1.377l.088 1.103h.029c.52-.831 1.311-1.247 2.374-1.247.83 0 1.523.325 2.079.974.553.65.831 1.504.831 2.563zm-1.593.056c0-.677-.154-1.235-.464-1.675a1.603 1.603 0 00-1.36-.687 1.64 1.64 0 00-1.052.38 1.756 1.756 0 00-.614.995 2.01 2.01 0 00-.074.472v1.16c0 .506.157.933.47 1.281.314.348.721.522 1.224.522.59 0 1.048-.224 1.376-.672.328-.45.492-1.04.492-1.776h.002zm10.643.802c0 .82-.29 1.488-.868 2.004-.636.563-1.52.845-2.658.845-1.05 0-1.892-.2-2.53-.6l.363-1.29c.686.411 1.44.617 2.26.617.588 0 1.046-.132 1.376-.394.328-.261.491-.614.491-1.054 0-.391-.135-.721-.405-.989s-.72-.516-1.347-.746c-1.709-.63-2.562-1.552-2.562-2.766 0-.793.299-1.443.898-1.95.597-.507 1.393-.76 2.39-.76.887 0 1.625.154 2.214.46l-.39 1.26c-.55-.296-1.173-.443-1.869-.443-.55 0-.98.133-1.287.4-.26.24-.391.53-.391.874 0 .381.149.696.447.945.261.229.733.477 1.42.744.84.334 1.457.725 1.854 1.173.396.447.594 1.006.594 1.673v-.003zm5.168-3.091h-1.723v3.378c0 .858.303 1.288.912 1.288.279 0 .511-.024.695-.073l.042 1.175c-.308.113-.713.17-1.216.17-.617 0-1.1-.186-1.448-.558-.347-.372-.52-.997-.52-1.875v-3.507h-1.027v-1.16h1.026V14.61l1.535-.459v1.733h1.724v1.16zm7.775 2.26c0 1.07-.308 1.948-.926 2.635-.648.707-1.507 1.058-2.579 1.058-1.031 0-1.854-.338-2.467-1.015-.613-.677-.92-1.532-.92-2.562 0-1.078.316-1.961.95-2.648.63-.687 1.483-1.03 2.554-1.03 1.032 0 1.863.338 2.49 1.016.6.658.899 1.506.899 2.547h-.001zm-1.62.052c0-.643-.14-1.193-.42-1.652-.329-.556-.797-.834-1.404-.834-.629 0-1.106.279-1.434.834-.281.459-.42 1.018-.42 1.68 0 .64.14 1.191.42 1.65.337.555.81.832 1.42.832.596 0 1.065-.283 1.403-.847.288-.468.433-1.024.433-1.665l.001.002zm6.702-2.113a2.663 2.663 0 00-.491-.044c-.55 0-.976.206-1.276.617-.26.362-.39.821-.39 1.374v3.65h-1.563l.015-4.766c0-.802-.02-1.532-.058-2.19h1.36l.058 1.33h.044c.164-.456.425-.826.78-1.101a1.905 1.905 0 011.13-.373c.145 0 .276.01.392.029v1.474h-.001zm6.993 1.79c0 .277-.018.51-.057.701h-4.69c.018.687.244 1.212.68 1.575.396.324.906.485 1.534.485.695 0 1.328-.108 1.898-.328l.245 1.073c-.666.286-1.452.43-2.36.43-1.09 0-1.947-.318-2.57-.953-.621-.635-.933-1.486-.933-2.555 0-1.05.29-1.923.87-2.62.607-.744 1.428-1.116 2.46-1.116 1.013 0 1.782.372 2.303 1.116.413.591.62 1.322.62 2.19v.002zm-1.49-.401c.01-.459-.092-.856-.304-1.189-.272-.43-.688-.645-1.247-.645-.511 0-.927.21-1.245.63a2.29 2.29 0 00-.462 1.203h3.257v.001zM35.97 7.257c0 .853-.259 1.495-.776 1.926-.479.4-1.159.598-2.04.598-.439 0-.813-.018-1.126-.056V5.063c.409-.065.849-.1 1.324-.1.84 0 1.474.182 1.9.542.478.409.718.992.718 1.752zm-.81.02c0-.553-.148-.977-.445-1.273-.297-.295-.73-.442-1.3-.442a3.24 3.24 0 00-.618.049v3.543c.095.015.268.022.52.022.587 0 1.04-.162 1.36-.486.321-.323.481-.794.481-1.413h.002zm5.107.725c0 .525-.152.957-.456 1.294-.318.348-.74.52-1.266.52-.506 0-.911-.166-1.212-.5-.301-.332-.451-.752-.451-1.258 0-.529.154-.964.465-1.3.312-.337.73-.506 1.256-.506.506 0 .914.167 1.223.499.293.324.44.742.44 1.252l.001-.001zm-.798.024a1.54 1.54 0 00-.205-.81c-.161-.273-.392-.41-.69-.41a.773.773 0 00-.705.41c-.138.224-.205.5-.205.825 0 .315.068.586.205.812.167.272.398.408.697.408.293 0 .524-.138.69-.416.142-.23.213-.503.213-.82v.001zm6.559-1.704l-1.082 3.417h-.704l-.447-1.484c-.115-.37-.207-.74-.279-1.105h-.015a7.902 7.902 0 01-.277 1.105l-.476 1.484h-.712L41.02 6.322h.79l.39 1.624c.096.384.173.75.235 1.097h.015a11.8 11.8 0 01.285-1.09l.49-1.631h.626l.47 1.596c.114.39.206.764.278 1.125h.02c.052-.351.131-.726.236-1.125l.42-1.596h.754zm3.984 3.417h-.769V7.78c0-.603-.231-.905-.696-.905a.698.698 0 00-.555.25.879.879 0 00-.213.585v2.027h-.77v-2.44c0-.3-.009-.626-.027-.98h.674l.037.536h.022c.088-.167.222-.303.397-.413.209-.127.442-.192.697-.192.323 0 .591.103.805.31.265.254.398.63.398 1.132v2.047zm2.12 0h-.77V4.753h.77v4.986zm4.524-1.737c0 .525-.152.957-.455 1.294-.319.348-.74.52-1.267.52-.508 0-.912-.166-1.213-.5-.3-.332-.45-.752-.45-1.258 0-.529.154-.964.465-1.3.311-.337.73-.506 1.255-.506.508 0 .916.167 1.224.499.293.324.442.742.442 1.252l-.001-.001zm-.798.024a1.54 1.54 0 00-.205-.81c-.162-.273-.392-.41-.69-.41a.77.77 0 00-.704.41c-.139.224-.206.5-.206.825 0 .315.069.586.205.812.167.272.399.408.698.408.293 0 .523-.138.69-.416.142-.23.212-.503.212-.82v.001zm4.517 1.713h-.689l-.059-.394h-.02c-.236.314-.572.471-1.01.471-.326 0-.59-.103-.79-.31a.963.963 0 01-.27-.695c0-.418.176-.736.53-.957.353-.22.85-.328 1.49-.323v-.064c0-.45-.238-.674-.718-.674-.34 0-.64.084-.9.252l-.157-.498c.322-.196.719-.295 1.186-.295.903 0 1.357.47 1.357 1.413v1.259c0 .34.017.612.05.814zm-.797-1.175v-.527c-.848-.014-1.272.215-1.272.689 0 .178.048.312.147.4.1.09.225.134.376.134a.784.784 0 00.47-.159.645.645 0 00.28-.537h-.002zm5.164 1.175h-.682l-.036-.55h-.02c-.219.419-.59.627-1.111.627-.417 0-.763-.161-1.038-.485-.276-.324-.413-.743-.413-1.258 0-.553.15-1 .448-1.344.29-.319.645-.478 1.067-.478.465 0 .79.154.976.464h.014V4.753h.769v4.065c0 .334.009.64.027.92zm-.795-1.442v-.57a.864.864 0 00-.3-.7.762.762 0 00-.514-.186.793.793 0 00-.677.338c-.163.225-.246.513-.246.865 0 .338.079.612.236.823a.797.797 0 00.672.337.745.745 0 00.607-.28.93.93 0 00.22-.627h.002zm7.368-.295c0 .525-.152.957-.454 1.294-.32.348-.741.52-1.268.52-.506 0-.91-.166-1.213-.5-.3-.332-.45-.752-.45-1.258 0-.529.155-.964.466-1.3.31-.337.729-.506 1.256-.506.506 0 .915.167 1.222.499.294.324.44.742.44 1.252l.001-.001zm-.796.024c0-.314-.07-.585-.206-.81-.162-.273-.391-.41-.69-.41a.772.772 0 00-.704.41c-.14.224-.207.5-.207.825 0 .315.069.586.205.812.167.272.4.408.698.408.294 0 .525-.138.69-.416a1.53 1.53 0 00.214-.82v.001zm4.928 1.713h-.767V7.78c0-.603-.232-.905-.697-.905a.695.695 0 00-.555.25.875.875 0 00-.214.585v2.027h-.77v-2.44c0-.3-.008-.626-.027-.98h.675l.037.536h.02c.09-.167.224-.303.398-.413.21-.127.442-.192.697-.192.323 0 .591.103.805.31.266.254.398.63.398 1.132v2.047zM80.62 6.89h-.847v1.66c0 .422.15.633.448.633.14 0 .253-.011.343-.036l.02.577a1.748 1.748 0 01-.597.085c-.304 0-.54-.091-.712-.274-.17-.183-.256-.49-.256-.92V6.888h-.505v-.567h.506v-.627l.753-.225v.85h.847v.57zm4.068 2.849h-.77V7.796c0-.613-.23-.92-.695-.92-.356 0-.6.178-.733.533a.972.972 0 00-.037.274v2.055h-.767V4.753h.768v2.059h.015a1.166 1.166 0 011.038-.561c.318 0 .581.103.79.31.261.256.392.639.392 1.145v2.032zm4.197-1.87c0 .136-.01.25-.03.344h-2.303c.01.337.12.594.333.773.195.16.448.24.756.24.34 0 .65-.054.931-.162l.12.528c-.327.14-.713.21-1.16.21-.535 0-.957-.155-1.261-.467-.308-.312-.46-.73-.46-1.254 0-.517.142-.946.427-1.288.298-.365.7-.548 1.21-.548.496 0 .874.183 1.128.548.207.29.308.649.308 1.075h.001zm-.733-.196a1.009 1.009 0 00-.15-.585c-.133-.21-.336-.317-.61-.317a.733.733 0 00-.612.31 1.136 1.136 0 00-.228.59h1.6v.002z" fill="#fff"/></svg>