<svg width="99" height="29" fill="none" xmlns="http://www.w3.org/2000/svg"><path d="M95.333 29H3.667C1.65 29 0 27.369 0 25.375V3.625C0 1.631 1.65 0 3.667 0h91.666C97.35 0 99 1.631 99 3.625v21.75C99 27.369 97.35 29 95.333 29z" fill="#000"/><path d="M95.333.58c1.699 0 3.08 1.366 3.08 3.045v21.75c0 1.679-1.381 3.045-3.08 3.045H3.667c-1.699 0-3.08-1.366-3.08-3.045V3.625C.587 1.945 1.968.58 3.667.58h91.666zm0-.58H3.667C1.65 0 0 1.631 0 3.625v21.75C0 27.369 1.65 29 3.667 29h91.666C97.35 29 99 27.369 99 25.375V3.625C99 1.631 97.35 0 95.333 0z" fill="#A6A6A6"/><path d="M34.773 7.426c0 .608-.182 1.092-.546 1.452-.414.43-.953.644-1.616.644a2.232 2.232 0 01-1.621-.652c-.444-.435-.666-.976-.666-1.62 0-.645.222-1.184.667-1.619a2.225 2.225 0 011.619-.652c.315 0 .616.06.902.18.286.123.517.284.69.487l-.388.384c-.292-.345-.693-.517-1.205-.517-.464 0-.865.16-1.203.483-.337.322-.505.74-.505 1.254 0 .515.168.932.506 1.254a1.68 1.68 0 001.202.484c.491 0 .9-.163 1.228-.486.213-.21.336-.505.37-.882h-1.6v-.522h2.133c.022.114.031.224.031.329h.002zm3.38-1.817H36.15v1.38h1.807v.522h-1.808v1.38h2.004v.534h-2.569v-4.35h2.57v.534h0zm2.386 3.816h-.567V5.609h-1.23v-.534h3.024v.534H40.54v3.816zm3.416 0v-4.35h.564v4.35h-.564zm3.072 0h-.565V5.609h-1.23v-.534h3.024v.534h-1.229v3.816zm6.954-.562c-.433.44-.971.66-1.614.66-.643 0-1.18-.22-1.613-.66-.433-.44-.648-.977-.648-1.613s.215-1.175.648-1.613c.433-.44.97-.66 1.613-.66.638 0 1.176.221 1.61.663.434.44.651.978.651 1.61 0 .635-.216 1.174-.648 1.612v.001zm-2.809-.365c.326.327.724.49 1.195.49.471 0 .87-.163 1.196-.49.325-.326.488-.742.488-1.248s-.163-.922-.49-1.249a1.624 1.624 0 00-1.194-.488c-.472 0-.87.162-1.196.488-.325.327-.489.743-.489 1.249 0 .506.164.923.488 1.248h.002zm4.25.927v-4.35h.689l2.138 3.384h.024l-.024-.839V5.075h.564v4.35h-.59l-2.236-3.548h-.025l.025.839v2.709h-.565 0z" fill="#fff" stroke="#fff" stroke-width=".2" stroke-miterlimit="10"/><path d="M49.966 15.77c-1.724 0-3.13 1.297-3.13 3.084 0 1.776 1.406 3.083 3.13 3.083 1.725 0 3.132-1.308 3.132-3.083 0-1.787-1.407-3.084-3.132-3.084zm0 4.952c-.946 0-1.76-.77-1.76-1.868 0-1.11.814-1.87 1.76-1.87.946 0 1.76.76 1.76 1.87 0 1.097-.814 1.869-1.76 1.869v-.001zm-6.83-4.952c-1.725 0-3.131 1.297-3.131 3.084 0 1.776 1.406 3.083 3.131 3.083 1.725 0 3.131-1.308 3.131-3.083 0-1.787-1.406-3.084-3.13-3.084zm0 4.952c-.944 0-1.76-.77-1.76-1.868 0-1.11.816-1.87 1.76-1.87.946 0 1.76.76 1.76 1.87 0 1.097-.814 1.869-1.76 1.869v-.001zm-8.124-4.006v1.308h3.166c-.094.737-.342 1.274-.72 1.648-.46.456-1.18.957-2.445.957a3.453 3.453 0 01-3.474-3.48 3.454 3.454 0 013.474-3.48 3.39 3.39 0 012.386.934l.934-.922c-.792-.747-1.843-1.32-3.32-1.32-2.669 0-4.914 2.15-4.914 4.789s2.244 4.789 4.915 4.789c1.44 0 2.527-.467 3.378-1.344.875-.864 1.147-2.078 1.147-3.06a4.18 4.18 0 00-.071-.817h-4.454l-.002-.002zm33.226 1.015c-.26-.688-1.052-1.96-2.67-1.96-1.607 0-2.942 1.25-2.942 3.083 0 1.728 1.323 3.083 3.095 3.083 1.43 0 2.256-.864 2.6-1.367l-1.064-.7c-.355.514-.839.853-1.536.853-.697 0-1.194-.316-1.513-.935l4.17-1.704-.14-.352zm-4.253 1.03a1.7 1.7 0 011.63-1.8c.543 0 1.005.269 1.159.654l-2.79 1.146zm-3.391 2.989h1.371v-9.062h-1.371v9.062zm-2.244-5.291h-.048c-.308-.363-.897-.689-1.642-.689-1.56 0-2.989 1.356-2.989 3.096 0 1.728 1.43 3.071 2.99 3.071.744 0 1.334-.326 1.642-.701h.046v.445c0 1.18-.638 1.81-1.664 1.81-.84 0-1.36-.594-1.573-1.097l-1.193.49c.343.818 1.253 1.823 2.765 1.823 1.606 0 2.965-.936 2.965-3.212v-5.538h-1.3v.502zm-1.572 4.263c-.946 0-1.736-.783-1.736-1.856 0-1.087.792-1.881 1.736-1.881.934 0 1.665.794 1.665 1.88 0 1.075-.731 1.858-1.665 1.858v-.001zm17.879-8.035h-3.278v9.063h1.368v-3.434h1.91c1.517 0 3.007-1.085 3.007-2.815s-1.49-2.813-3.006-2.813l-.001-.001zm.037 4.367h-1.947V13.95h1.946c1.023 0 1.604.837 1.604 1.552 0 .703-.58 1.554-1.603 1.554zm8.455-1.301c-.99 0-2.017.43-2.442 1.387l1.216.5c.26-.5.743-.664 1.25-.664.708 0 1.427.42 1.439 1.167v.092a3.057 3.057 0 00-1.427-.35c-1.31 0-2.642.711-2.642 2.04 0 1.214 1.074 1.995 2.277 1.995.92 0 1.427-.408 1.745-.886h.048v.7h1.32v-3.476c0-1.609-1.214-2.507-2.783-2.507l-.001.002zm-.165 4.966c-.447 0-1.073-.221-1.073-.768 0-.7.778-.969 1.45-.969.602 0 .885.128 1.251.303a1.652 1.652 0 01-1.628 1.434zm7.76-4.769l-1.569 3.93h-.046l-1.628-3.93h-1.474l2.442 5.492-1.393 3.055h1.428l3.762-8.546h-1.521zm-12.324 5.8h1.368v-9.062H78.42v9.062z" fill="#fff"/><path d="M7.652 5.465c-.212.223-.34.57-.34 1.018v16.035c0 .45.127.795.34 1.018l.055.052 9.084-8.982v-.21L7.705 5.412l-.053.053v-.001z" fill="url(#paint0_linear)"/><path d="M19.82 17.603l-3.028-2.996v-.211L19.82 11.4l.07.039 3.588 2.015c1.024.576 1.024 1.518 0 2.093l-3.588 2.016-.07.039z" fill="url(#paint1_linear)"/><path d="M19.89 17.563L16.792 14.5l-9.14 9.037c.338.354.895.397 1.524.044l10.714-6.018" fill="url(#paint2_linear)"/><path d="M19.89 11.438L9.175 5.421c-.627-.353-1.185-.31-1.523.043l9.14 9.037 3.098-3.062z" fill="url(#paint3_linear)"/><path opacity=".2" d="M19.822 17.496l-10.647 5.98c-.595.333-1.127.311-1.468.007l-.055.054.054.052c.342.305.873.326 1.469-.008l10.714-6.018-.07-.067h.003z" fill="#000"/><path opacity=".12" d="M7.652 23.43c-.212-.222-.34-.569-.34-1.018v.106c0 .45.127.796.34 1.019l.055-.054-.055-.053zm15.826-7.988l-3.656 2.052.068.067 3.588-2.015c.511-.288.768-.667.768-1.047-.044.344-.304.681-.768.942v.001z" fill="#000"/><path opacity=".25" d="M9.176 5.527l14.302 8.032c.464.261.726.598.768.942 0-.379-.256-.759-.768-1.047L9.176 5.421c-1.024-.576-1.862-.097-1.862 1.063v.106c0-1.16.838-1.638 1.862-1.063z" fill="#fff"/><defs><linearGradient id="paint0_linear" x1="15.987" y1="6.314" x2="3.82" y2="18.62" gradientUnits="userSpaceOnUse"><stop stop-color="#00A0FF"/><stop offset=".007" stop-color="#00A1FF"/><stop offset=".26" stop-color="#00BEFF"/><stop offset=".512" stop-color="#00D2FF"/><stop offset=".76" stop-color="#00DFFF"/><stop offset="1" stop-color="#00E3FF"/></linearGradient><linearGradient id="paint1_linear" x1="24.812" y1="14.501" x2="7.067" y2="14.501" gradientUnits="userSpaceOnUse"><stop stop-color="#FFE000"/><stop offset=".409" stop-color="#FFBD00"/><stop offset=".775" stop-color="orange"/><stop offset="1" stop-color="#FF9C00"/></linearGradient><linearGradient id="paint2_linear" x1="18.206" y1="16.165" x2="1.708" y2="32.853" gradientUnits="userSpaceOnUse"><stop stop-color="#FF3A44"/><stop offset="1" stop-color="#C31162"/></linearGradient><linearGradient id="paint3_linear" x1="5.351" y1=".128" x2="12.719" y2="7.58" gradientUnits="userSpaceOnUse"><stop stop-color="#32A071"/><stop offset=".069" stop-color="#2DA771"/><stop offset=".476" stop-color="#15CF74"/><stop offset=".801" stop-color="#06E775"/><stop offset="1" stop-color="#00F076"/></linearGradient></defs></svg>